<svg xmlns="http://www.w3.org/2000/svg" viewBox="0 0 423.67 239.84"><defs><style>.cls-1,.cls-2{fill:none;stroke-linecap:round;stroke-linejoin:round;}.cls-1,.cls-2,.cls-4,.cls-5{stroke:#1b1b1b;}.cls-1{stroke-width:0.75px;}.cls-3,.cls-4{fill:#1b1b1b;}.cls-4,.cls-5{stroke-miterlimit:10;}.cls-5{fill:#81d273;}</style></defs><g id="Layer_2" data-name="Layer 2"><g id="Layer_5" data-name="Layer 5"><path class="cls-1" d="M120.32,140.5a.64.64,0,0,0-.1.37,18.82,18.82,0,0,0,0,3.27c.15.76,1.34.76,1.93.76a2.84,2.84,0,0,0,2.53-1,2.69,2.69,0,0,0,.12-2.8,2.94,2.94,0,0,0-2.12-1.18C122,139.88,120.73,139.84,120.32,140.5Z"/><path class="cls-1" d="M159.39,115.34a.64.64,0,0,0,.14-.36,18.13,18.13,0,0,0,.3-3.19c-.08-.75-1.24-.85-1.81-.9a2.81,2.81,0,0,0-2.55.7,2.59,2.59,0,0,0-.35,2.72,2.81,2.81,0,0,0,1.95,1.34C157.72,115.8,158.94,115.94,159.39,115.34Z"/><path class="cls-2" d="M139.22,115.44c5.24,1.15,9.51,3.8,14.15,6.37,2,1.13,4.2,2.62,4.81,5,.71,2.8-2.13,4.9-4.7,4.83-3.15-.09-6.11-1.68-9-2.78s-6-2.27-9.07-3.31l-1.2-1.12a11.69,11.69,0,0,1,1.48,1.41,16.2,16.2,0,0,1,3.52,9.59,17.43,17.43,0,0,1-.41,3.87,10.19,10.19,0,0,1-6.79,7.62c-3.81,1.23-9.34.87-12.67-1.34-2.47-1.65-2.06-6.21,1-7,2.2-.57,10,0,8.05-4.45a14.93,14.93,0,0,0-4-4.73c-4.15-3.68-10.11-3.64-15.14-2-3,1-3.72,2.64-1.26,4.86,1.77,1.59,3.4,3.28,3.08,5.87a3.23,3.23,0,0,1-2.4,2.71c-4.45,1.51-9.48-.73-12.41-4.14l-.13-.16c-4.36-5.25-4.41-13.69-3.25-19.93a120.47,120.47,0,0,1,5.09-19.34c2.21-6.06,4.83-12,6.54-18.18,1.45-5.27,2.57-10.62,3.67-16q2.14-10.35,4.07-20.73h17c-1,5.18-1.92,10.39-2.71,15.61-.83,5.44-1.42,10.91-2,16.38-.31,3-.81,6.25.19,9.26a15.33,15.33,0,0,0,6.61,8c3,1.88,7.07,3.88,10.62,4.06a53,53,0,0,0,5.34-.32c3.37-.16,13.17-1.7,13.11,4,0,3.06-3.57,4.57-6,5.3a26.66,26.66,0,0,1-9.74.83l-4.41-.19a48.57,48.57,0,0,1,7.13.52c3,.44,16.87,2.48,14.87,8.48-.92,2.75-4.4,2.7-6.95,2.73-3.61,0-7.17-.31-10.78-.16"/><path class="cls-1" d="M107,140a.71.71,0,0,0,.29-.26A18.63,18.63,0,0,0,109,137c.28-.72-.73-1.34-1.23-1.65a2.86,2.86,0,0,0-2.65-.54,2.67,2.67,0,0,0-1.58,2.32,2.91,2.91,0,0,0,1.17,2.12C105.24,139.67,106.28,140.36,107,140Z"/><path class="cls-1" d="M153.63,130.21a.7.7,0,0,0,.26-.32,19.33,19.33,0,0,0,1.46-3.22c.19-.82-1-1.34-1.56-1.59a3.08,3.08,0,0,0-2.91-.18,2.86,2.86,0,0,0-1.35,2.71,3.17,3.17,0,0,0,1.56,2.1C151.71,130.09,152.93,130.68,153.63,130.21Z"/><path class="cls-1" d="M157.52,101.26a.69.69,0,0,0,.1-.36,18.77,18.77,0,0,0,0-3.18c-.15-.74-1.3-.73-1.87-.73a2.78,2.78,0,0,0-2.45.92,2.59,2.59,0,0,0-.11,2.72,2.8,2.8,0,0,0,2,1.14C155.91,101.86,157.12,101.9,157.52,101.26Z"/></g><g id="Layer_4" data-name="Layer 4"><path class="cls-3" d="M59.84,72.12a47.52,47.52,0,0,0,6.66-.66,20.57,20.57,0,0,0,5.18-1.61A1.12,1.12,0,0,0,72.3,69l2.44-14.11a1.1,1.1,0,0,0-1.08-1.28H59.71a1.1,1.1,0,0,1-1.08-1.29l2.6-14.25a1.1,1.1,0,0,1,1.08-.9H95a1.08,1.08,0,0,1,1.07,1.28L88.61,81.53a1.1,1.1,0,0,1-.58.8,67.72,67.72,0,0,1-14.09,5.15,68.28,68.28,0,0,1-16.74,2,50.84,50.84,0,0,1-16.62-2.58A36.26,36.26,0,0,1,27.8,79.56a33.26,33.26,0,0,1-8.22-11.64,38.53,38.53,0,0,1-2.94-15.36A55.5,55.5,0,0,1,20.42,32,51.35,51.35,0,0,1,31,15.3a49.49,49.49,0,0,1,16-11.22A48.64,48.64,0,0,1,66.92,0a50.35,50.35,0,0,1,18.3,3.18,28.83,28.83,0,0,1,12.27,8.61,1.11,1.11,0,0,1-.13,1.5L84.49,24.88a1.08,1.08,0,0,1-1.57-.12,19.71,19.71,0,0,0-5.86-4.9,21.14,21.14,0,0,0-10.5-2.34A25.77,25.77,0,0,0,55,20.16a29.28,29.28,0,0,0-9.24,7.14,33.89,33.89,0,0,0-6.12,10.44A35.52,35.52,0,0,0,37.4,50.28,25.62,25.62,0,0,0,38.84,59a18.93,18.93,0,0,0,4.32,7,19.65,19.65,0,0,0,7.08,4.56A26.54,26.54,0,0,0,59.84,72.12Z"/><path class="cls-3" d="M106.14,71,116.2,13.39a1.09,1.09,0,0,1,1.08-.91h17.09a1.1,1.1,0,0,1,1.08,1.29L125.16,71.34c-.15.83-.35,1.66-.58,2.48A5.09,5.09,0,0,1,123,76.65a8.44,8.44,0,0,1-3.14,1.46,15.9,15.9,0,0,1-7.37.53A9.64,9.64,0,0,1,108,76.3a8.56,8.56,0,0,1-1.58-2,4.08,4.08,0,0,1-.4-2.85C106.09,71.28,106.11,71.12,106.14,71Z"/><path class="cls-3" d="M147.38,34c.3-2,.52-3.82.69-5.49a1.09,1.09,0,0,1,1.09-1h16.16a1.1,1.1,0,0,1,1.09,1.2c-.08.81-.19,1.79-.31,2.94q-.3,2.7-.54,4.5h.24a29.44,29.44,0,0,1,3.12-3.78,23,23,0,0,1,4-3.3,19.56,19.56,0,0,1,5-2.28,20.47,20.47,0,0,1,6-.84q7.08,0,11.34,2.94a15.51,15.51,0,0,1,5.24,6,1.09,1.09,0,0,0,1.81.24,29.06,29.06,0,0,1,7.17-6.21A21.59,21.59,0,0,1,221,25.92a22.93,22.93,0,0,1,8.88,1.56,17.71,17.71,0,0,1,6.18,4.2,16.67,16.67,0,0,1,3.6,6.06,22.06,22.06,0,0,1,1.14,7c0,1-.05,1.92-.12,2.88s-.2,1.88-.36,2.76l-6.44,35.94a1.1,1.1,0,0,1-1.08.9h-17A1.09,1.09,0,0,1,214.74,86l5.42-31.12a23.89,23.89,0,0,0,.6-5A9.26,9.26,0,0,0,219,44c-1.2-1.56-3.21-2.34-6-2.34a9.16,9.16,0,0,0-4.56,1.14,12.73,12.73,0,0,0-3.6,3,15.1,15.1,0,0,0-2.52,4.32,26.59,26.59,0,0,0-1.44,5l-5.48,31.25a1.1,1.1,0,0,1-1.08.91h-17.1A1.09,1.09,0,0,1,176.1,86L181.88,53a17.19,17.19,0,0,0,.36-3.36,9.28,9.28,0,0,0-1.74-5.76q-1.75-2.28-5.46-2.28a9.66,9.66,0,0,0-8,3.9,20.65,20.65,0,0,0-4,9.3l-5.6,31.5a1.1,1.1,0,0,1-1.08.9h-17A1.09,1.09,0,0,1,138.3,86l8.06-46.12C146.67,38.32,147,36.36,147.38,34Z"/><path class="cls-3" d="M258.37,34c.3-2,.53-3.82.69-5.49a1.1,1.1,0,0,1,1.09-1h16.16a1.09,1.09,0,0,1,1.09,1.2c-.08.81-.18,1.79-.31,2.94q-.3,2.7-.54,4.5h.24a29.44,29.44,0,0,1,3.12-3.78,23,23,0,0,1,4-3.3,19.56,19.56,0,0,1,5-2.28,20.52,20.52,0,0,1,6-.84q7.08,0,11.34,2.94a15.54,15.54,0,0,1,5.25,6,1.08,1.08,0,0,0,1.8.24,29.43,29.43,0,0,1,7.17-6.21A21.63,21.63,0,0,1,332,25.92a22.89,22.89,0,0,1,8.88,1.56,17.62,17.62,0,0,1,6.18,4.2,16.39,16.39,0,0,1,3.6,6.06,22.06,22.06,0,0,1,1.14,7q0,1.44-.12,2.88t-.36,2.76l-6.43,35.94a1.1,1.1,0,0,1-1.08.9h-17A1.09,1.09,0,0,1,325.74,86l5.41-31.12a23.89,23.89,0,0,0,.6-5A9.26,9.26,0,0,0,330,44q-1.8-2.34-6-2.34a9.19,9.19,0,0,0-4.56,1.14,12.87,12.87,0,0,0-3.6,3,15.34,15.34,0,0,0-2.52,4.32,28.18,28.18,0,0,0-1.44,5l-5.48,31.25a1.09,1.09,0,0,1-1.08.91H288.18A1.09,1.09,0,0,1,287.1,86L292.87,53a17.19,17.19,0,0,0,.36-3.36,9.22,9.22,0,0,0-1.74-5.76q-1.74-2.28-5.46-2.28a9.67,9.67,0,0,0-8,3.9,20.65,20.65,0,0,0-4,9.3l-5.59,31.5a1.1,1.1,0,0,1-1.08.9h-17A1.09,1.09,0,0,1,249.3,86l8.05-46.12Q257.83,37.56,258.37,34Z"/><path class="cls-3" d="M379.27,62.52a4.46,4.46,0,0,0-.12,1.08,8.85,8.85,0,0,0,1.14,4.5,11,11,0,0,0,3,3.36,13.79,13.79,0,0,0,4.2,2.1,16.43,16.43,0,0,0,4.86.72,18.28,18.28,0,0,0,8-1.68A21.41,21.41,0,0,0,406,68.72a1.1,1.1,0,0,1,1.44-.09l10.4,8.14a1.1,1.1,0,0,1,.11,1.63,34,34,0,0,1-12,7.94A42.41,42.41,0,0,1,390.67,89a37.18,37.18,0,0,1-11.58-1.74,26.71,26.71,0,0,1-9.3-5.16,24.17,24.17,0,0,1-6.24-8.46,27.67,27.67,0,0,1-2.28-11.52A37.8,37.8,0,0,1,364,47.82a36,36,0,0,1,7.44-11.58,34.21,34.21,0,0,1,11.34-7.74,36.58,36.58,0,0,1,14.52-2.82A32.7,32.7,0,0,1,408,27.36a23.64,23.64,0,0,1,8.34,4.86,21.56,21.56,0,0,1,5.4,7.86,28.28,28.28,0,0,1,1.92,10.8,44.78,44.78,0,0,1-.42,5.46,53.73,53.73,0,0,1-.94,5.34,1.08,1.08,0,0,1-1.07.84Zm27.24-11.76a6.11,6.11,0,0,0,.12-1.2v-1.2a8.67,8.67,0,0,0-2.82-6.6q-2.82-2.64-8.1-2.64a14.26,14.26,0,0,0-5.82,1.14,17.54,17.54,0,0,0-4.5,2.82,15.15,15.15,0,0,0-3.12,3.72,16.29,16.29,0,0,0-1.21,2.5,1.08,1.08,0,0,0,1,1.46Z"/></g><g id="Layer_6" data-name="Layer 6"><path class="cls-4" d="M43.7,221.94a46.07,46.07,0,0,0,6.66-.66,20.8,20.8,0,0,0,5.26-1.64.94.94,0,0,0,.52-.7l2.49-14.37a1,1,0,0,0-.93-1.11H43.39a.94.94,0,0,1-.93-1.11l2.66-14.55a.94.94,0,0,1,.93-.78h33a1,1,0,0,1,.93,1.11l-7.53,43.3a1,1,0,0,1-.5.69A67.62,67.62,0,0,1,57.8,237.3a68.28,68.28,0,0,1-16.74,2,50.84,50.84,0,0,1-16.62-2.58,36.26,36.26,0,0,1-12.78-7.38,33.17,33.17,0,0,1-8.22-11.64A38.49,38.49,0,0,1,.5,202.38a55.58,55.58,0,0,1,3.78-20.52,51.46,51.46,0,0,1,10.56-16.74,49.64,49.64,0,0,1,16-11.22,48.8,48.8,0,0,1,20-4.08A50.56,50.56,0,0,1,69.08,153a28.83,28.83,0,0,1,12.36,8.72,1,1,0,0,1-.12,1.3L68.23,174.81a1,1,0,0,1-1.39-.15,19.79,19.79,0,0,0-5.92-5,21.14,21.14,0,0,0-10.5-2.34A25.9,25.9,0,0,0,38.84,170a29.42,29.42,0,0,0-9.24,7.14,33.89,33.89,0,0,0-6.12,10.44,35.56,35.56,0,0,0-2.22,12.54,25.62,25.62,0,0,0,1.44,8.7,18.77,18.77,0,0,0,4.32,7,19.52,19.52,0,0,0,7.08,4.56A26.54,26.54,0,0,0,43.7,221.94Z"/><path class="cls-4" d="M87,236l10.11-57.87a.94.94,0,0,1,.93-.79h17.4a1,1,0,0,1,.93,1.12L106,236.29a.94.94,0,0,1-.93.77H87.9A.94.94,0,0,1,87,236Z"/><path class="cls-5" d="M120.62,157.26a11.48,11.48,0,0,1-.84,4.44,12,12,0,0,1-2.34,3.66,10.61,10.61,0,0,1-3.54,2.52,10.88,10.88,0,0,1-4.44.9,10.66,10.66,0,0,1-7.5-2.7,8.94,8.94,0,0,1-2.94-6.9,11.19,11.19,0,0,1,3.3-8.22,11.05,11.05,0,0,1,8.1-3.3,10.15,10.15,0,0,1,7.32,2.76A9.12,9.12,0,0,1,120.62,157.26Z"/><path class="cls-4" d="M131.24,183.78q.47-3.08.7-5.62a1,1,0,0,1,.94-.86h16.46a.94.94,0,0,1,.94,1c-.08.84-.19,1.88-.32,3.11q-.3,2.7-.54,4.5h.24a30.88,30.88,0,0,1,3.12-3.78,23.41,23.41,0,0,1,4-3.3,19.91,19.91,0,0,1,5-2.28,20.86,20.86,0,0,1,6-.84c4.72,0,8.5,1,11.34,2.94a15.47,15.47,0,0,1,5.34,6.19.93.93,0,0,0,1.56.2,29.29,29.29,0,0,1,7.32-6.39,21.73,21.73,0,0,1,11.52-2.94,23.08,23.08,0,0,1,8.88,1.56,17.89,17.89,0,0,1,6.18,4.2,16.47,16.47,0,0,1,3.6,6.06,22.06,22.06,0,0,1,1.14,7q0,1.44-.12,2.88c-.08,1-.2,1.89-.36,2.76l-6.46,36.07a.94.94,0,0,1-.93.77H199.5a.94.94,0,0,1-.93-1.1l5.45-31.3a23.75,23.75,0,0,0,.6-5,9.28,9.28,0,0,0-1.8-5.82q-1.8-2.34-6-2.34a9.29,9.29,0,0,0-4.56,1.14,13.22,13.22,0,0,0-3.6,3,15.62,15.62,0,0,0-2.52,4.32,28.18,28.18,0,0,0-1.44,5l-5.5,31.38a1,1,0,0,1-.94.78h-17.4a1,1,0,0,1-.93-1.1l5.81-33.1a17.19,17.19,0,0,0,.36-3.36,9.26,9.26,0,0,0-1.74-5.76c-1.16-1.51-3-2.28-5.46-2.28a9.7,9.7,0,0,0-8,3.9,20.65,20.65,0,0,0-4,9.3l-5.62,31.62a.94.94,0,0,1-.93.78H123.06a.94.94,0,0,1-.93-1.1l8.09-46.3C130.54,188.15,130.88,186.18,131.24,183.78Z"/><path class="cls-4" d="M242.24,183.78c.3-2.05.54-3.92.7-5.62a1,1,0,0,1,.94-.86h16.46a.94.94,0,0,1,.94,1c-.08.84-.19,1.88-.32,3.11q-.3,2.7-.54,4.5h.24a30.88,30.88,0,0,1,3.12-3.78,23.41,23.41,0,0,1,4-3.3,19.91,19.91,0,0,1,5-2.28,20.86,20.86,0,0,1,6-.84c4.72,0,8.5,1,11.34,2.94a15.47,15.47,0,0,1,5.34,6.19.93.93,0,0,0,1.56.2,29.29,29.29,0,0,1,7.32-6.39,21.73,21.73,0,0,1,11.52-2.94,23.12,23.12,0,0,1,8.88,1.56,18,18,0,0,1,6.18,4.2,16.75,16.75,0,0,1,3.6,6.06,22.06,22.06,0,0,1,1.14,7q0,1.44-.12,2.88c-.08,1-.2,1.89-.36,2.76l-6.46,36.07a1,1,0,0,1-.93.77H310.5a.94.94,0,0,1-.93-1.1l5.45-31.3a23.75,23.75,0,0,0,.6-5,9.28,9.28,0,0,0-1.8-5.82q-1.8-2.34-6-2.34a9.29,9.29,0,0,0-4.56,1.14,13.22,13.22,0,0,0-3.6,3,15.62,15.62,0,0,0-2.52,4.32,27.36,27.36,0,0,0-1.44,5l-5.51,31.38a.94.94,0,0,1-.93.78h-17.4a.94.94,0,0,1-.93-1.1l5.81-33.1a17.19,17.19,0,0,0,.36-3.36,9.32,9.32,0,0,0-1.74-5.76c-1.16-1.51-3-2.28-5.46-2.28a9.7,9.7,0,0,0-8,3.9,20.65,20.65,0,0,0-4,9.3l-5.62,31.62a1,1,0,0,1-.94.78H234.06a.94.94,0,0,1-.93-1.1l8.09-46.3C241.54,188.15,241.88,186.18,242.24,183.78Z"/><path class="cls-4" d="M363.13,212.34a4.52,4.52,0,0,0-.12,1.08,8.85,8.85,0,0,0,1.14,4.5,10.83,10.83,0,0,0,3,3.36,13.57,13.57,0,0,0,4.2,2.1,16.43,16.43,0,0,0,4.86.72,18.14,18.14,0,0,0,8-1.68,21.57,21.57,0,0,0,5.66-4,.92.92,0,0,1,1.24-.08l10.63,8.31a1,1,0,0,1,.1,1.42,34.07,34.07,0,0,1-12.11,8,42.41,42.41,0,0,1-15.24,2.7A37.18,37.18,0,0,1,363,237.12a26.55,26.55,0,0,1-9.3-5.16,24.17,24.17,0,0,1-6.24-8.46A27.67,27.67,0,0,1,345.13,212a37.84,37.84,0,0,1,2.7-14.34,36.09,36.09,0,0,1,7.44-11.58,34.51,34.51,0,0,1,11.34-7.74,36.75,36.75,0,0,1,14.52-2.82,32.7,32.7,0,0,1,10.74,1.68,23.94,23.94,0,0,1,8.34,4.86,21.64,21.64,0,0,1,5.4,7.86,28.28,28.28,0,0,1,1.92,10.8,44.78,44.78,0,0,1-.42,5.46,52.36,52.36,0,0,1-1,5.46.94.94,0,0,1-.93.72Zm27.24-11.76a6,6,0,0,0,.12-1.2v-1.2a8.68,8.68,0,0,0-2.82-6.6c-1.88-1.75-4.58-2.64-8.1-2.64a14.42,14.42,0,0,0-5.82,1.14,18.1,18.1,0,0,0-4.5,2.82,15.52,15.52,0,0,0-3.12,3.72,16.48,16.48,0,0,0-1.29,2.7,1,1,0,0,0,.9,1.26Z"/></g></g></svg>